<svg aria-hidden="true" style="position: absolute; width: 0; height: 0; overflow: hidden;" version="1.1" xmlns="http://www.w3.org/2000/svg" xmlns:xlink="http://www.w3.org/1999/xlink">
   <defs>
      <symbol id="heart" viewBox="0 0 32 32">
         <path d="M15.992 7.561c-2.559-3.022-6.827-3.834-10.033-1.068s-3.658 7.393-1.14 10.665c1.613 2.096 5.743 5.983 8.505 8.506 0.918 0.839 1.376 1.258 1.926 1.426 0.472 0.145 1.012 0.145 1.485 0 0.55-0.168 1.008-0.587 1.926-1.426 2.761-2.524 6.892-6.41 8.505-8.506 2.518-3.272 2.122-7.928-1.14-10.665s-7.474-1.954-10.033 1.068z"></path>
      </symbol>
      <symbol id="heart-white" viewBox="0 0 272 32">
         <path fill="#fff" style="fill: var(--color2, #fff)" d="M15.992 7.561c-2.559-3.022-6.827-3.834-10.033-1.068s-3.658 7.393-1.14 10.665c1.613 2.096 5.743 5.983 8.505 8.506 0.918 0.839 1.376 1.258 1.926 1.426 0.472 0.145 1.012 0.145 1.485 0 0.55-0.168 1.008-0.587 1.926-1.426 2.761-2.524 6.892-6.41 8.505-8.506 2.518-3.272 2.122-7.928-1.14-10.665s-7.474-1.954-10.033 1.068z"></path>
      </symbol>
      <symbol id="mob-menu" viewBox="0 0 32 32" fill="none">
         <path d="M4 16H28" stroke-width="3" stroke-linecap="round" stroke-linejoin="round" />
         <path d="M4 8H28" stroke-width="3" stroke-linecap="round" stroke-linejoin="round" />
         <path d="M4 24H28" stroke-width="3" stroke-linecap="round" stroke-linejoin="round" />
      </symbol>
      <symbol id="eye" viewBox="0 0 22 22" fill="none">
         <path d="M0.916016 11C0.916016 11 4.58268 3.66667 10.9993 3.66667C17.416 3.66667 21.0827 11 21.0827 11C21.0827 11 17.416 18.3333 10.9993 18.3333C4.58268 18.3333 0.916016 11 0.916016 11Z" stroke="#F6B83D" stroke-width="2" stroke-linecap="round" stroke-linejoin="round" />
         <path d="M11 13.75C12.5188 13.75 13.75 12.5188 13.75 11C13.75 9.48122 12.5188 8.25 11 8.25C9.48122 8.25 8.25 9.48122 8.25 11C8.25 12.5188 9.48122 13.75 11 13.75Z" stroke="#F6B83D" stroke-width="2" stroke-linecap="round" stroke-linejoin="round" />
      </symbol>
      <symbol id="eye-off" viewBox="0 0 22 22" fill="none">
         <path d="M16.4463 16.445C14.8793 17.6394 12.9713 18.3011 11.0013 18.3333C4.58464 18.3333 0.917969 11 0.917969 11C2.0582 8.87507 3.63968 7.01855 5.5563 5.555M9.0763 3.88666C9.70727 3.73897 10.3533 3.66514 11.0013 3.66666C17.418 3.66666 21.0846 11 21.0846 11C20.5282 12.041 19.8646 13.021 19.1046 13.9242M12.9446 12.9433C12.6929 13.2135 12.3893 13.4302 12.0519 13.5805C11.7146 13.7308 11.3505 13.8117 10.9812 13.8182C10.612 13.8247 10.2452 13.7568 9.90278 13.6184C9.56036 13.4801 9.2493 13.2743 8.98816 13.0131C8.72703 12.752 8.52116 12.4409 8.38285 12.0985C8.24454 11.7561 8.17662 11.3893 8.18313 11.0201C8.18965 10.6508 8.27047 10.2867 8.42077 9.94936C8.57108 9.61203 8.78778 9.30843 9.05797 9.05666" stroke="#F6B83D" stroke-width="2" stroke-linecap="round" stroke-linejoin="round" />
         <path d="M0.917969 0.916672L21.0846 21.0833" stroke="#F6B83D" stroke-width="2" stroke-linecap="round" stroke-linejoin="round" />
      </symbol>
      <symbol id="cross" viewBox="0 0 22 22" fill="none">
         <path d="M17.4163 4.58333L4.58301 17.4167M4.58305 4.58333L17.4163 17.4167" stroke="#EF2447" stroke-width="2" stroke-linecap="round" stroke-linejoin="round" />
      </symbol>
      <symbol id="cross-search" viewBox="0 0 18 18" fill="none">
         <path d="M14.25 3.75L3.75 14.25M3.75003 3.75L14.25 14.25" stroke-width="2" stroke-linecap="round" stroke-linejoin="round" />
      </symbol>
      <symbol id="modal-close" viewBox="0 0 24 24" fill="none">
         <path d="M18 6L6 18" stroke="#262626" stroke-width="2" stroke-linecap="round" stroke-linejoin="round" />
         <path d="M6 6L18 18" stroke="#262626" stroke-width="2" stroke-linecap="round" stroke-linejoin="round" />
      </symbol>
      <symbol id="check" viewBox="0 0 22 22" fill="none">
         <path d="M18.3337 6.41667L8.25042 16.5L3.66699 11.9167" stroke="#08AA83" stroke-width="1.5" stroke-linecap="round" stroke-linejoin="round" />
      </symbol>
      <symbol id="search" fill="none">
         <path d="M8.25 14.25C11.5637 14.25 14.25 11.5637 14.25 8.25C14.25 4.93629 11.5637 2.25 8.25 2.25C4.93629 2.25 2.25 4.93629 2.25 8.25C2.25 11.5637 4.93629 14.25 8.25 14.25Z" stroke-width="2" stroke-linecap="round" stroke-linejoin="round" />
         <path d="M15.7508 15.75L12.4883 12.4875" stroke-width="2" stroke-linecap="round" stroke-linejoin="round" />
      </symbol>
      <symbol id="star-rating">
         <path d="M9.7998 4.69727C9.95896 4.99878 10.249 5.20939 10.585 5.26758L14.3848 5.92383L11.6973 8.69141C11.4895 8.9053 11.3788 9.19279 11.3867 9.4873L11.3975 9.61426L11.9463 13.4316L8.48535 11.7305L8.36816 11.6807C8.13008 11.5961 7.86992 11.5961 7.63184 11.6807L7.51465 11.7305L4.05273 13.4316L4.60254 9.61426C4.64501 9.31888 4.56551 9.02085 4.38574 8.78711L4.30273 8.69141L1.61426 5.92383L5.41504 5.26758C5.70911 5.21664 5.96806 5.04894 6.13477 4.80566L6.2002 4.69727L8 1.28613L9.7998 4.69727Z"/>
      </symbol>
      <symbol id="favorite" width="18" height="18" viewBox="0 0 18 18">
         <path d="M15.6286 3.45753C15.2456 3.07428 14.7907 2.77026 14.2901 2.56284C13.7895 2.35542 13.253 2.24866 12.7111 2.24866C12.1693 2.24866 11.6327 2.35542 11.1321 2.56284C10.6315 2.77026 10.1767 3.07428 9.79362 3.45753L8.99862 4.25253L8.20362 3.45753C7.42985 2.68376 6.3804 2.24906 5.28612 2.24906C4.19185 2.24906 3.14239 2.68376 2.36862 3.45753C1.59486 4.2313 1.16016 5.28075 1.16016 6.37503C1.16016 7.4693 1.59486 8.51876 2.36862 9.29253L3.16362 10.0875L8.99862 15.9225L14.8336 10.0875L15.6286 9.29253C16.0119 8.90946 16.3159 8.45464 16.5233 7.95404C16.7307 7.45345 16.8375 6.91689 16.8375 6.37503C16.8375 5.83316 16.7307 5.2966 16.5233 4.79601C16.3159 4.29542 16.0119 3.84059 15.6286 3.45753Z" stroke-width="1.5" stroke-linecap="round" stroke-linejoin="round" />
      </symbol>
   </defs>
</svg>
